<?xml version="1.0" encoding="utf-8"?>
<!-- Generator: Adobe Illustrator 15.1.0, SVG Export Plug-In . SVG Version: 6.00 Build 0)  -->
<!DOCTYPE svg PUBLIC "-//W3C//DTD SVG 1.1//EN" "http://www.w3.org/Graphics/SVG/1.1/DTD/svg11.dtd">
<svg version="1.1" id="_x32_" xmlns="http://www.w3.org/2000/svg" xmlns:xlink="http://www.w3.org/1999/xlink" x="0px" y="0px"
	 width="512px" height="512px" viewBox="0 0 512 512" style="enable-background:new 0 0 512 512;" xml:space="preserve">
<style type="text/css">
<![CDATA[
	.st0{fill:#4B4B4B;}
]]>
</style>
<g>
	<path class="st0" d="M442.219,226.656c-14.344-14.406-34.438-23.375-56.375-23.359H186.969v-81.578
		c0.031-19.141,7.688-36.219,20.234-48.813C219.781,60.391,236.859,52.719,256,52.703c19.141,0.016,36.219,7.688,48.813,20.203
		C317.344,85.5,325,102.578,325.031,121.719v43.406h52.688v-43.406c0.031-33.531-13.656-64.125-35.656-86.063
		C320.125,13.656,289.531-0.016,256,0c-33.531-0.016-64.125,13.656-86.063,35.656c-22,21.938-35.688,52.531-35.656,86.063v81.578
		h-8.125c-21.938-0.016-42.031,8.953-56.375,23.359C55.406,241,46.422,261.078,46.438,283v149.281
		c-0.016,21.938,8.969,42.031,23.344,56.375c14.344,14.375,34.438,23.359,56.375,23.344h259.688
		c21.938,0.016,42.031-8.969,56.375-23.344c14.375-14.344,23.359-34.438,23.344-56.375V283
		C465.578,261.078,456.594,241,442.219,226.656z M412.859,432.281c-0.016,7.531-2.984,14.125-7.922,19.094
		c-4.969,4.938-11.531,7.906-19.094,7.922H126.156c-7.547-0.016-14.125-2.984-19.094-7.922c-4.938-4.969-7.906-11.563-7.922-19.094
		V283c0.016-7.531,2.984-14.125,7.922-19.094c4.969-4.906,11.547-7.891,19.094-7.906h259.688c7.563,0.016,14.125,3,19.094,7.906
		c4.938,4.969,7.906,11.563,7.922,19.094V432.281z"/>
	<path class="st0" d="M256,301.594c-20.969,0-37.969,16.984-37.969,37.953c0,15.453,9.281,28.703,22.531,34.609l-8.391,54.5H256
		h23.828l-8.391-54.5c13.25-5.906,22.531-19.156,22.531-34.609C293.969,318.578,276.969,301.594,256,301.594z"/>
</g>
</svg>
